<?xml version="1.0"?>
<svg xmlns="http://www.w3.org/2000/svg" xmlns:xlink="http://www.w3.org/1999/xlink" version="1.1" id="Capa_1" x="0px" y="0px" viewBox="0 0 25.925 25.925" style="enable-background:new 0 0 25.925 25.925;" xml:space="preserve" width="512px" height="512px" class=""><g><g>
	<path d="M1.843,12.962c0,4.401,2.557,8.205,6.267,10.008L2.805,8.437C2.189,9.819,1.843,11.35,1.843,12.962z    M20.469,12.4c0-1.374-0.493-2.326-0.917-3.066c-0.563-0.917-1.092-1.691-1.092-2.608c0-1.021,0.775-1.973,1.867-1.973   c0.049,0,0.096,0.006,0.145,0.008c-1.979-1.813-4.615-2.919-7.509-2.919c-3.885,0-7.303,1.993-9.291,5.013   c0.261,0.008,0.507,0.013,0.716,0.013c1.163,0,2.963-0.142,2.963-0.142c0.599-0.035,0.67,0.846,0.071,0.917   c0,0-0.603,0.07-1.272,0.105l4.049,12.045l2.434-7.298l-1.732-4.747c-0.599-0.035-1.167-0.105-1.167-0.105   c-0.6-0.036-0.529-0.953,0.07-0.917c0,0,1.836,0.142,2.928,0.142c1.163,0,2.964-0.142,2.964-0.142   c0.6-0.035,0.67,0.846,0.071,0.917c0,0-0.604,0.07-1.272,0.105l4.018,11.953l1.11-3.706C20.187,14.55,20.469,13.353,20.469,12.4z    M13.158,13.935l-3.337,9.694c0.997,0.293,2.05,0.453,3.142,0.453c1.294,0,2.537-0.224,3.693-0.63   c-0.029-0.048-0.057-0.099-0.08-0.153L13.158,13.935z M22.72,7.627c0.049,0.354,0.075,0.734,0.075,1.144   c0,1.128-0.212,2.396-0.846,3.982l-3.396,9.82c3.306-1.928,5.529-5.509,5.529-9.611C24.082,11.028,23.588,9.21,22.72,7.627z" data-original="#030104" class="active-path" data-old_color="#919798" fill="#909697"/>
	<g>
		<path d="M0,12.962c0,7.147,5.815,12.963,12.962,12.963c7.149,0,12.963-5.816,12.963-12.963    S20.111,0,12.963,0S0,5.814,0,12.962z M0.594,12.962c0-6.819,5.548-12.368,12.368-12.368s12.369,5.549,12.369,12.368    S19.782,25.33,12.963,25.33S0.594,19.781,0.594,12.962z" data-original="#030104" class="active-path" data-old_color="#919798" fill="#909697"/>
	</g>
</g></g> </svg>
